<svg xmlns="http://www.w3.org/2000/svg" viewBox="163.631 0.955 49.514 49.514" role="img" aria-label="Intesa Sanpaolo">
  <path fill="#DDB314" d="M207.91,14.935L207.91,14.935l-0.016-0.013c-0.301-0.18-0.758-0.283-1.063-0.148 c-1.957-0.186-3.824-0.165-5.801-0.145h-0.059l-0.078,0.002c-0.99,0.013-2.014,0.023-3.037,0.008 c-8.287-0.172-8.287-0.172-8.287-0.172c-1.941-0.051-4.07-0.035-6.158,0.043c-1.547,0.013-3.047,0.053-4.576,0.099 c-1.594,0.041-5.396,0.054-7.668,0.059c-1.211,0.005-1.846,0.005-1.926,0.01c-0.27,0.018-0.594,0.39-0.602,0.693 c-0.006,0.167,0.096,0.359,0.385,0.388c0.215,0.025,1.588,0.03,4.084,0.022l2.549-0.013c0.68-0.005,0.996,0.01,1.145-0.008h0.016 c1.873-0.187,3.758-0.177,5.578-0.164h0.141c1.18,0.005,2.398,0.013,3.625-0.035c0.254,0.058,0.523,0.005,0.781-0.049l0.041-0.007 c0.113-0.023,0.234-0.046,0.35-0.054c0.279,0.076,0.6,0.073,0.936,0.066c0.324-0.006,0.656-0.013,0.957,0.061l0.002,0.008 l0.053-0.003v-0.008c0.264-0.091,0.508-0.043,0.762,0.008c0.008,0.003,0.047,0.008,0.047,0.008 c0.121,0.025,0.234,0.045,0.346,0.048c2.369-0.063,4.99,0.021,8.256,0.273c-0.004,0,1.547,0.164,1.547,0.164v-0.002v0.002h0.018 c1.375-0.134,2.795-0.03,4.168,0.068c0.004,0.003,0.033,0.003,0.033,0.003c1.033,0.078,2.008,0.149,2.979,0.126l0.002,0.013 l0.059-0.02l-0.002-0.013l0.514-0.41l0.002,0.002l0.023-0.024l-0.002-0.006C208.201,15.542,208.146,15.159,207.91,14.935"/>
  <path fill="#0F6735" d="M194.199,32.541l0.043-0.025v-0.102l-0.037-3.227v-0.01l-0.004-0.008c-0.057-0.486-0.066-1.023-0.08-1.592 c-0.014-0.639-0.027-1.299-0.113-1.885c-0.016-0.834-0.182-1.732-0.342-2.602l-0.109-0.586l-0.01-0.057l-0.039-0.039 c-0.129-0.133-0.174-0.295-0.223-0.482c-0.043-0.158-0.086-0.32-0.188-0.475c-0.215-0.398-0.557-0.777-0.859-1.117l-0.018-0.018 c-0.074-0.102-0.162-0.156-0.24-0.205c-0.047-0.029-0.088-0.059-0.135-0.098l-0.07-0.061l-0.041,0.01l-0.055-0.043 c-0.273-0.219-0.529-0.305-0.824-0.4l-0.004-0.002c-0.086-0.121-0.25-0.141-0.359-0.143v-0.08l-0.154-0.021l-0.715-0.107 l-0.107-0.016l-0.066,0.086c-0.027,0.033-0.031,0.043-0.182-0.016c-0.07-0.023-0.145-0.051-0.229-0.059l-0.084-0.008l-0.043,0.041 c-0.02-0.016-0.049-0.033-0.08-0.051l-0.301-0.088l-0.02,0.139c-0.137-0.002-0.25,0.023-0.344,0.074h-0.475l-0.438,0.004 l0.049,0.17l-0.008,0.008c-0.193-0.053-0.338,0.066-0.422,0.135c-0.016,0.012-0.031,0.025-0.041,0.033 c-0.154,0.023-0.244,0.09-0.305,0.139c-0.047,0.035-0.063,0.047-0.105,0.051l-0.074,0.004l-0.049,0.061 c-0.066,0.076-0.271,0.17-0.385,0.221l-0.24,0.107l0.051,0.053c-0.039,0.016-0.076,0.041-0.113,0.072h-0.232v0.186 c-0.012-0.002-0.02-0.002-0.027-0.006l-0.131-0.055c-0.012-0.002-0.094,0.113-0.094,0.113c-0.143,0.197-0.33,0.395-0.523,0.6 c-0.229,0.246-0.467,0.496-0.646,0.77l-0.057,0.078l0.037,0.084c-0.045,0.025-0.152,0.096-0.174,0.229 c-0.088,0.096-0.109,0.225-0.125,0.311c-0.002,0.025-0.008,0.064-0.016,0.082c-0.096,0.113-0.115,0.23-0.131,0.318 c-0.014,0.068-0.02,0.105-0.047,0.141l-0.117,0.145l0.053,0.041c-0.035,0.088-0.035,0.178-0.035,0.232 c0,0.025-0.002,0.053-0.004,0.076l-0.076,0.045l0.02,0.115c0.029,0.227,0.002,0.439-0.029,0.66 c-0.029,0.215-0.057,0.434-0.033,0.678c-0.09,0.135-0.068,0.291-0.053,0.393c0.006,0.033,0.014,0.082,0.01,0.102l-0.115,0.092 l0.082,0.137c0.063,0.104,0.012,0.27-0.033,0.43c-0.047,0.152-0.098,0.336-0.045,0.5c-0.012,0.012-0.027,0.025-0.039,0.043 c-0.02,0.025-0.039,0.076-0.033,0.133c0,0.127-0.014,0.164-0.018,0.174l-0.084,0.176l-0.012,0.068l0.152,0.107 c-0.018,0.104-0.006,0.201,0.008,0.287c0.02,0.115,0.021,0.166-0.014,0.213l-0.096,0.174l0.096,0.113c0,0.012,0,0.021,0,0.031 c-0.004,0.078-0.012,0.221,0.086,0.324c0.004,0.02,0.006,0.037,0.012,0.055l-0.174,0.047l0.111,0.244 c0,0.016-0.006,0.039-0.01,0.059c-0.02,0.07-0.051,0.215,0.021,0.34c-0.055,0.141-0.02,0.277,0.004,0.371 c0.004,0.025,0.014,0.064,0.018,0.086c-0.166,0.176-0.086,0.406-0.039,0.529c-0.078,0.117-0.061,0.256-0.043,0.342l-0.223,0.078 l0.227,0.232c-0.01,0.049-0.01,0.111,0.025,0.178c0.027,0.039,0.061,0.064,0.096,0.078l-0.068,0.025 c0.002,0.008,0.004,0.016,0.008,0.023l0,0l0.078,0.207l-0.002,0.023c-0.018,0.121,0.01,0.24,0.068,0.334 c-0.02,0.025-0.031,0.061-0.037,0.102l-0.088,0.088l0.088,0.125c0.068,0.096,0.043,0.225-0.008,0.424 c-0.043,0.172-0.1,0.398,0.004,0.588l-0.127,0.121l0.156,0.119c-0.002,0.008-0.008,0.016-0.01,0.023 c-0.041,0.072-0.113,0.215-0.023,0.363l-0.006-0.018c0.031,0.074,0.018,0.193,0.002,0.316c-0.021,0.182-0.049,0.402,0.049,0.621 l-0.031,0.219l0.008-0.029c-0.025,0.086-0.008,0.158,0.021,0.209l-0.07,0.033l0.049,0.154c0.049,0.158,0.051,0.35,0.051,0.557 c0.004,0.391,0.004,0.83,0.354,1.168l0.078,0.07l0.098-0.031c0.266-0.074,0.275-0.338,0.283-0.475 c0.002-0.033,0.002-0.061,0.008-0.084l0.002-0.037l-0.01-0.035c-0.107-0.357-0.061-0.826-0.021-1.238 c0.012-0.111,0.021-0.213,0.029-0.314l0.002-0.047l-0.02-0.049c-0.072-0.143-0.055-0.283-0.035-0.447 c0.02-0.148,0.035-0.316-0.018-0.486c0.059-0.758,0.027-1.65-0.008-2.439c-0.01-0.332-0.027-0.648-0.031-0.941v-0.008v-0.01 c-0.045-0.371-0.033-0.77-0.021-1.16c0.008-0.348,0.02-0.703-0.012-1.033c0.082-0.377,0.078-0.721,0.07-1.086 c-0.004-0.166-0.006-0.334,0-0.514l0.002-0.045l-0.014-0.025c0.084-0.094,0.102-0.195,0.061-0.293 c0.037-0.143,0.045-0.273,0.047-0.391c0.002-0.096,0.008-0.188,0.025-0.268l0.01-0.043l-0.012-0.043 c-0.021-0.082,0-0.172,0.021-0.271c0.027-0.119,0.059-0.256,0.01-0.395c0.137-0.283,0.17-0.631,0.195-0.967l0.012-0.117 c0.012-0.072-0.014-0.143-0.074-0.201c0-0.008,0-0.014,0-0.014c0-0.148,0.08-0.268,0.178-0.42c0.104-0.166,0.223-0.357,0.256-0.611 l0.002-0.043l-0.002-0.008c0.014-0.016,0.029-0.029,0.041-0.041c0.064-0.051,0.164-0.137,0.164-0.271 c-0.002-0.025-0.006-0.047-0.014-0.07c0.125-0.113,0.203-0.24,0.273-0.354c0.102-0.176,0.174-0.297,0.375-0.355l0.096-0.027 l0.025-0.1c0.029-0.111,0.127-0.172,0.281-0.27c0.115-0.072,0.244-0.154,0.34-0.277c0.129,0.012,0.207-0.021,0.252-0.072 c0.156-0.039,0.277-0.133,0.377-0.211c0.162-0.133,0.221-0.162,0.332-0.107l0.111,0.047l0.072-0.07c0.006,0,0.01-0.002,0.016-0.002 c0.053-0.016,0.143-0.039,0.195-0.125c0.049-0.01,0.092-0.023,0.131-0.035c0.092-0.033,0.113-0.035,0.146-0.02 c0.029,0.02,0.094,0.043,0.166,0.025l0.006,0.012l0.133-0.018l0.174-0.02c0.518-0.068,0.965-0.125,1.369,0.09l0.143,0.076 l0.088-0.129c0.016,0.02,0.035,0.041,0.051,0.063c0.104,0.115,0.287,0.314,0.549,0.27c0.059,0.053,0.123,0.09,0.18,0.123 c0.023,0.014,0.055,0.033,0.076,0.047v0.01l0.035,0.045c0.082,0.109,0.256,0.162,0.395,0.168c0.303,0.318,0.611,0.756,0.611,0.945 v0.178h0.135c0,0.006,0,0.008,0,0.01c0.053,0.236,0.119,0.529,0.305,0.725c-0.053,0.119-0.01,0.264,0.012,0.324 c0.006,0.02,0.014,0.045,0.018,0.068l-0.047,0.133l0.121,0.119l0.025,0.016c-0.008,0.121,0.049,0.236,0.088,0.316 c0.01,0.023,0.023,0.045,0.031,0.07l-0.029,0.064c-0.16,0.309,0.057,0.48,0.158,0.561c0.018,0.016,0.029,0.023,0.039,0.031 c-0.08,0.061-0.074,0.127-0.094,0.234l0.014,0.137l0.057,0.09c0,0,0.002,0.002,0.006,0.002c0,0.006,0.002,0.014,0.004,0.018 c0.008,0.025,0.021,0.063,0.045,0.104l-0.063,0.061l-0.043,0.16l0.09,0.127l0.07,0.037c-0.002,0.07,0.025,0.137,0.047,0.18 c0.002,0.008,0.008,0.021,0.01,0.027l-0.016,0.08c-0.059,0.293-0.135,0.676,0.049,0.98c-0.006,0.008-0.014,0.014-0.016,0.018 c-0.084,0.115-0.064,0.244-0.049,0.338c0.004,0.029,0.014,0.08,0.012,0.096l-0.047,0.186c-0.004,0.008,0.059,0.025,0.111,0.035 c-0.006,0.018-0.014,0.035-0.02,0.055l-0.037,0.213h0.07c-0.012,0.074-0.014,0.143-0.018,0.203c0,0.109-0.004,0.18-0.041,0.232 l-0.018,0.025l-0.006,0.031c-0.055,0.191,0.018,0.373,0.076,0.523c0.01,0.027,0.02,0.053,0.031,0.078 c-0.031,0.037-0.064,0.084-0.059,0.156c0,0.016,0.008,0.029,0.012,0.041l-0.039,0.041l0.035,0.102 c0.02,0.063,0.055,0.098,0.098,0.123l-0.027,0.008c-0.008,0-0.008,0.139-0.008,0.139v0.049l-0.113,0.035l0.057,0.117 c-0.029,0.053-0.057,0.131-0.029,0.219l-0.076,0.137c0.004-0.002,0.014,0.082,0.082,0.115c-0.07,0.244,0.105,0.424,0.213,0.531 c0.047,0.043,0.072,0.078,0.094,0.104h-0.09l0.068,0.232v0.006c-0.014,0.012-0.031,0.033-0.043,0.051l-0.152,0.07l0.051,0.199 l-0.016,0.051c-0.035,0.104-0.006,0.172,0.023,0.219c0.006,0.006,0.012,0.012,0.021,0.02c-0.057,0.051-0.113,0.129-0.127,0.248 l-0.018,0.17l0.141,0.021c-0.014,0.037-0.023,0.072-0.031,0.105c-0.02,0.061-0.033,0.115-0.063,0.158v0.004 c-0.002,0.004-0.008,0.014-0.01,0.021l0.24,0.135c-0.037,0.061-0.055,0.127-0.068,0.172c-0.01,0.027-0.018,0.059-0.027,0.074 c-0.006,0-0.01,0-0.018,0l-0.199,0.002l0.01,0.232c0.01,0.035,0.016,0.076,0.021,0.125c0.004,0.043,0.01,0.09,0.021,0.143v0.234 c0,0.029,0,0.078,0.012,0.129l-0.029,0.014l0.018,0.131c0.012,0.064,0.006,0.131,0,0.191c-0.002,0.037-0.004,0.082-0.004,0.121 l-0.164,0.084l0.201,0.221l-0.004,0.01c-0.023,0.053-0.051,0.123-0.051,0.207h-0.143l0.242,0.297 c0.021,0.021,0.039,0.09,0.053,0.137c0.002,0.004,0.002,0.012,0.006,0.018c-0.102,0.096-0.117,0.242-0.123,0.316 c-0.006,0.035-0.01,0.084-0.018,0.098c0,0,0.002-0.002,0.002-0.004l0.063,0.084c-0.047,0.035-0.078,0.074-0.094,0.107 c-0.025,0.057-0.025,0.117-0.02,0.17h-0.234l0.191,0.193l-0.178,0.061l0.15,0.123v0.479c0,0.088,0.041,0.162,0.111,0.197 c0.006,0.002,0.01,0.002,0.01,0.002c0.1,0.066,0.203,0.064,0.287,0.043v0.201l0.234-0.07c0.168-0.051,0.297-0.059,0.43-0.031 l0.191,0.037l0.025-0.191c0.092-0.717,0.074-1.412,0.057-2.084c-0.02-0.656-0.035-1.277,0.049-1.885 C194.289,32.707,194.234,32.596,194.199,32.541"/>
  <path fill="#184B8D" d="M180.447,32.541l0.043-0.025v-0.102l-0.037-3.227v-0.01V29.17c-0.059-0.486-0.07-1.023-0.082-1.592 c-0.014-0.639-0.029-1.299-0.117-1.885c-0.014-0.834-0.18-1.732-0.34-2.602l-0.109-0.586l-0.008-0.057l-0.041-0.039 c-0.129-0.133-0.174-0.295-0.223-0.482c-0.041-0.158-0.084-0.32-0.184-0.475c-0.215-0.398-0.557-0.777-0.861-1.117l-0.014-0.018 c-0.078-0.102-0.166-0.156-0.244-0.205c-0.047-0.029-0.09-0.059-0.135-0.098l-0.068-0.061l-0.041,0.01l-0.057-0.043 c-0.271-0.219-0.529-0.305-0.822-0.4L177.1,19.52c-0.084-0.121-0.246-0.141-0.357-0.143v-0.08l-0.152-0.021l-0.719-0.107 l-0.105-0.016l-0.068,0.086c-0.021,0.033-0.029,0.043-0.18-0.016c-0.07-0.023-0.146-0.051-0.229-0.059l-0.086-0.008l-0.039,0.041 c-0.023-0.016-0.049-0.033-0.082-0.051l-0.299-0.088l-0.023,0.139c-0.133-0.002-0.246,0.023-0.342,0.074h-0.475l-0.438,0.004 l0.049,0.17l-0.008,0.008c-0.191-0.053-0.34,0.066-0.42,0.135c-0.016,0.012-0.031,0.025-0.041,0.033 c-0.156,0.023-0.246,0.09-0.309,0.139c-0.047,0.035-0.063,0.047-0.104,0.051l-0.076,0.004l-0.047,0.061 c-0.066,0.076-0.273,0.17-0.383,0.221l-0.244,0.107l0.055,0.053c-0.037,0.016-0.08,0.041-0.117,0.072h-0.232v0.186 c-0.01-0.002-0.02-0.002-0.025-0.006l-0.131-0.055c-0.012-0.002-0.096,0.113-0.096,0.113c-0.141,0.197-0.326,0.395-0.521,0.6 c-0.23,0.246-0.465,0.496-0.646,0.77l-0.059,0.078l0.037,0.084c-0.043,0.025-0.152,0.096-0.17,0.229 c-0.092,0.096-0.111,0.225-0.125,0.311c-0.002,0.025-0.01,0.064-0.016,0.082c-0.096,0.113-0.119,0.23-0.135,0.318 c-0.01,0.068-0.018,0.105-0.047,0.141l-0.113,0.145l0.051,0.041c-0.033,0.088-0.035,0.178-0.035,0.232c0,0.025,0,0.053-0.004,0.076 l-0.076,0.045l0.018,0.115c0.031,0.227,0.002,0.439-0.027,0.66c-0.029,0.215-0.059,0.434-0.033,0.678 c-0.09,0.135-0.068,0.291-0.053,0.393c0.004,0.033,0.012,0.082,0.01,0.102l-0.117,0.092l0.084,0.137 c0.063,0.104,0.012,0.27-0.037,0.43c-0.041,0.152-0.096,0.336-0.039,0.5c-0.016,0.012-0.027,0.025-0.041,0.043 c-0.021,0.025-0.035,0.076-0.033,0.133c0,0.127-0.014,0.164-0.018,0.174l-0.084,0.176l-0.016,0.068l0.154,0.107 c-0.016,0.104-0.004,0.201,0.01,0.287c0.02,0.115,0.021,0.166-0.012,0.213l-0.098,0.174l0.096,0.113c0,0.012,0,0.021,0,0.031 c-0.006,0.078-0.012,0.221,0.086,0.324c0.002,0.02,0.004,0.037,0.012,0.055l-0.176,0.047l0.113,0.244 c-0.002,0.016-0.006,0.039-0.01,0.059c-0.018,0.07-0.051,0.215,0.021,0.34c-0.055,0.141-0.021,0.277,0.002,0.371 c0.006,0.025,0.016,0.064,0.02,0.086c-0.166,0.176-0.084,0.406-0.039,0.529c-0.08,0.117-0.061,0.256-0.045,0.342l-0.223,0.078 l0.227,0.232c-0.01,0.049-0.01,0.111,0.027,0.178c0.025,0.039,0.061,0.064,0.096,0.078l-0.07,0.025 c0.002,0.008,0.008,0.016,0.01,0.023h-0.002l0.084,0.207l-0.006,0.023c-0.02,0.121,0.01,0.24,0.07,0.334 c-0.021,0.025-0.035,0.061-0.039,0.102l-0.088,0.088l0.088,0.125c0.068,0.096,0.041,0.225-0.008,0.424 c-0.045,0.172-0.1,0.398,0.002,0.588l-0.123,0.121l0.154,0.119c-0.002,0.008-0.008,0.016-0.01,0.023 c-0.041,0.072-0.113,0.215-0.021,0.363l-0.01-0.018c0.033,0.074,0.018,0.193,0.002,0.316c-0.02,0.182-0.047,0.402,0.049,0.621 l-0.031,0.219l0.01-0.029c-0.027,0.086-0.006,0.158,0.021,0.209l-0.07,0.033l0.049,0.154c0.047,0.158,0.051,0.35,0.055,0.557 c0,0.391,0,0.83,0.352,1.168l0.074,0.07l0.102-0.031c0.262-0.074,0.273-0.338,0.283-0.475c0-0.033,0.002-0.061,0.006-0.084 l0.004-0.037l-0.01-0.035c-0.105-0.357-0.063-0.826-0.021-1.238c0.008-0.111,0.02-0.213,0.027-0.314l0.002-0.047l-0.021-0.049 c-0.072-0.143-0.055-0.283-0.033-0.447c0.018-0.148,0.035-0.316-0.02-0.486c0.064-0.758,0.027-1.65-0.004-2.439 c-0.014-0.332-0.025-0.648-0.031-0.941v-0.008l-0.002-0.01c-0.045-0.371-0.035-0.77-0.021-1.16c0.01-0.348,0.021-0.703-0.014-1.033 c0.084-0.377,0.078-0.721,0.072-1.086c-0.002-0.166-0.004-0.334,0-0.514v-0.045l-0.01-0.025c0.082-0.094,0.1-0.195,0.057-0.293 c0.039-0.143,0.045-0.273,0.047-0.391c0.006-0.096,0.008-0.188,0.029-0.268l0.008-0.043l-0.01-0.043 c-0.025-0.082-0.002-0.172,0.02-0.271c0.025-0.119,0.057-0.256,0.008-0.395c0.141-0.283,0.172-0.631,0.199-0.967l0.012-0.117 c0.01-0.072-0.014-0.143-0.072-0.201c0-0.008,0-0.014,0-0.014c0-0.148,0.076-0.268,0.172-0.42c0.107-0.166,0.227-0.357,0.258-0.611 l0.006-0.043l-0.004-0.008c0.014-0.016,0.025-0.029,0.041-0.041c0.066-0.051,0.164-0.137,0.16-0.271c0-0.025-0.004-0.047-0.01-0.07 c0.125-0.113,0.199-0.24,0.27-0.354c0.102-0.176,0.174-0.297,0.377-0.355l0.096-0.027l0.025-0.1 c0.031-0.111,0.127-0.172,0.281-0.27c0.115-0.072,0.242-0.154,0.338-0.277c0.129,0.012,0.207-0.021,0.254-0.072 c0.158-0.039,0.277-0.133,0.377-0.211c0.166-0.133,0.221-0.162,0.332-0.107l0.111,0.047l0.072-0.07 c0.004,0,0.012-0.002,0.012-0.002c0.055-0.016,0.143-0.039,0.197-0.125c0.049-0.01,0.096-0.023,0.131-0.035 c0.092-0.033,0.115-0.035,0.146-0.02c0.033,0.02,0.094,0.043,0.168,0.025l0.006,0.012l0.133-0.018l0.174-0.02 c0.518-0.068,0.963-0.125,1.367,0.09l0.145,0.076l0.088-0.129c0.018,0.02,0.037,0.041,0.053,0.063 c0.105,0.115,0.285,0.314,0.547,0.27c0.057,0.053,0.121,0.09,0.18,0.123c0.023,0.014,0.053,0.033,0.078,0.047v0.01l0.033,0.045 c0.082,0.109,0.256,0.162,0.393,0.168c0.307,0.318,0.613,0.756,0.613,0.945v0.178h0.133c0,0.006,0,0.008,0,0.01 c0.053,0.236,0.121,0.529,0.305,0.725c-0.053,0.119-0.008,0.264,0.012,0.324c0.006,0.02,0.014,0.045,0.018,0.068l-0.043,0.133 l0.117,0.119l0.027,0.016c-0.008,0.121,0.047,0.236,0.09,0.316c0.01,0.023,0.02,0.045,0.031,0.07l-0.029,0.064 c-0.164,0.309,0.055,0.48,0.158,0.561c0.016,0.016,0.025,0.023,0.039,0.031c-0.08,0.061-0.078,0.127-0.096,0.234l0.016,0.137 l0.053,0.09c0.006,0.002,0.004,0.002,0.006,0.002c0.002,0.006,0.002,0.014,0.006,0.018c0.01,0.025,0.021,0.063,0.043,0.104 l-0.061,0.061l-0.043,0.16l0.088,0.127l0.072,0.037c-0.004,0.07,0.027,0.137,0.047,0.18c0.004,0.008,0.006,0.021,0.012,0.027 l-0.018,0.08c-0.061,0.293-0.133,0.676,0.049,0.98c-0.006,0.008-0.01,0.014-0.016,0.018c-0.084,0.115-0.063,0.244-0.047,0.338 c0.002,0.029,0.014,0.08,0.008,0.096l-0.047,0.186c-0.002,0.008,0.063,0.025,0.111,0.035c-0.006,0.018-0.014,0.035-0.016,0.055 l-0.041,0.213h0.072c-0.01,0.074-0.014,0.143-0.016,0.203c-0.002,0.109-0.006,0.18-0.045,0.232l-0.014,0.025l-0.008,0.031 c-0.053,0.191,0.018,0.373,0.076,0.523c0.01,0.027,0.021,0.053,0.029,0.078c-0.029,0.037-0.059,0.084-0.055,0.156 c0,0.016,0.006,0.029,0.01,0.041l-0.041,0.041l0.037,0.102c0.02,0.063,0.055,0.098,0.098,0.123l-0.029,0.008 c-0.006,0-0.006,0.139-0.006,0.139v0.049l-0.111,0.035l0.053,0.117c-0.025,0.053-0.057,0.131-0.025,0.219l-0.078,0.137 c0.004-0.002,0.016,0.082,0.084,0.115c-0.074,0.244,0.104,0.424,0.213,0.531c0.043,0.043,0.072,0.078,0.092,0.104h-0.09 l0.066,0.232l0.004,0.006c-0.016,0.012-0.031,0.033-0.047,0.051l-0.148,0.07l0.049,0.199l-0.014,0.051 c-0.037,0.104-0.008,0.172,0.021,0.219c0.006,0.006,0.014,0.012,0.021,0.02c-0.055,0.051-0.113,0.129-0.127,0.248l-0.016,0.17 l0.139,0.021c-0.016,0.037-0.025,0.072-0.033,0.105c-0.018,0.061-0.031,0.115-0.061,0.158l0.002,0.004 c-0.006,0.004-0.01,0.014-0.014,0.021l0.242,0.135c-0.033,0.061-0.055,0.127-0.068,0.172c-0.008,0.027-0.018,0.059-0.025,0.074 c-0.006,0-0.012,0-0.018,0l-0.203,0.002l0.012,0.232c0.012,0.035,0.018,0.076,0.021,0.125c0.004,0.043,0.008,0.09,0.021,0.143 v0.234c0,0.029,0,0.078,0.012,0.129l-0.029,0.014l0.02,0.131c0.01,0.064,0.006,0.131,0,0.191c-0.002,0.037-0.008,0.082-0.006,0.121 l-0.162,0.084l0.199,0.221c-0.002,0.002-0.004,0.008-0.004,0.008c-0.025,0.055-0.051,0.125-0.051,0.209h-0.145l0.244,0.297 c0.02,0.021,0.039,0.09,0.051,0.137c0.004,0.004,0.006,0.012,0.006,0.018c-0.098,0.096-0.113,0.242-0.121,0.316 c-0.006,0.035-0.01,0.084-0.02,0.098c0,0,0.002-0.002,0.006-0.004l0.063,0.084c-0.049,0.035-0.078,0.074-0.094,0.107 c-0.025,0.057-0.029,0.117-0.021,0.17h-0.234l0.193,0.193l-0.182,0.061l0.15,0.123v0.479c0,0.088,0.043,0.162,0.115,0.197 c0.004,0.002,0.006,0.002,0.006,0.002c0.1,0.066,0.205,0.064,0.291,0.043v0.201l0.23-0.07c0.17-0.051,0.299-0.059,0.434-0.031 l0.189,0.037l0.025-0.191c0.092-0.717,0.072-1.412,0.055-2.084c-0.018-0.656-0.035-1.277,0.053-1.885 C180.537,32.707,180.484,32.596,180.447,32.541"/>
  <path fill="#F17321" d="M207.713,32.783l0.043-0.025l-0.002-0.102l-0.037-3.227v-0.008v-0.01c-0.059-0.486-0.07-1.021-0.082-1.59 c-0.016-0.641-0.029-1.301-0.113-1.883c-0.018-0.838-0.184-1.732-0.344-2.6l-0.109-0.592l-0.01-0.053l-0.039-0.043 c-0.129-0.129-0.174-0.291-0.223-0.48c-0.041-0.16-0.084-0.322-0.184-0.477c-0.215-0.395-0.561-0.777-0.863-1.115l-0.016-0.018 c-0.074-0.102-0.162-0.158-0.24-0.205c-0.045-0.031-0.09-0.059-0.133-0.1l-0.07-0.059l-0.043,0.01l-0.055-0.045 c-0.273-0.217-0.525-0.301-0.822-0.4l-0.008-0.002c-0.084-0.121-0.246-0.139-0.357-0.145v-0.078l-0.154-0.023l-0.717-0.105 l-0.105-0.018l-0.064,0.088c-0.025,0.033-0.033,0.041-0.188-0.012c-0.066-0.023-0.143-0.053-0.225-0.061l-0.084-0.008l-0.041,0.041 c-0.023-0.02-0.049-0.033-0.082-0.049l-0.299-0.092l-0.023,0.137c-0.133,0-0.246,0.027-0.342,0.076h-0.475l-0.438,0.002l0.053,0.17 c-0.008,0.004-0.008,0.006-0.012,0.01c-0.191-0.053-0.342,0.066-0.422,0.135c-0.014,0.014-0.031,0.025-0.039,0.033 c-0.158,0.027-0.244,0.092-0.309,0.141c-0.047,0.033-0.061,0.047-0.104,0.049l-0.074,0.006l-0.051,0.061 c-0.061,0.08-0.27,0.166-0.383,0.221l-0.242,0.105l0.055,0.051c-0.037,0.018-0.08,0.043-0.117,0.076h-0.232v0.188 c-0.008,0-0.021-0.004-0.025-0.006l-0.133-0.055c-0.01-0.006-0.094,0.111-0.094,0.111c-0.141,0.197-0.326,0.395-0.523,0.602 c-0.229,0.242-0.463,0.494-0.645,0.768l-0.059,0.082l0.037,0.08c-0.041,0.027-0.152,0.096-0.174,0.227 c-0.088,0.096-0.107,0.229-0.121,0.313c-0.004,0.027-0.012,0.064-0.016,0.078c-0.096,0.119-0.119,0.234-0.135,0.32 c-0.01,0.068-0.018,0.107-0.047,0.143l-0.113,0.146l0.051,0.037c-0.035,0.088-0.035,0.18-0.035,0.234 c0,0.021-0.004,0.057-0.006,0.076l-0.074,0.045l0.018,0.115c0.031,0.229,0.002,0.436-0.027,0.662 c-0.029,0.215-0.057,0.432-0.035,0.676c-0.088,0.133-0.064,0.293-0.051,0.393c0.004,0.035,0.012,0.08,0.01,0.1l-0.117,0.092 l0.084,0.137c0.063,0.104,0.012,0.271-0.035,0.43c-0.043,0.152-0.098,0.342-0.043,0.502c-0.014,0.012-0.027,0.025-0.039,0.045 c-0.021,0.027-0.035,0.074-0.033,0.135c0,0.121-0.014,0.158-0.02,0.17l-0.082,0.174l-0.016,0.07l0.154,0.107 c-0.018,0.105-0.004,0.201,0.01,0.285c0.018,0.117,0.023,0.168-0.012,0.213l-0.098,0.178l0.096,0.111c0,0.01,0,0.02,0,0.029 c-0.006,0.078-0.014,0.221,0.086,0.324c0.002,0.021,0.008,0.039,0.01,0.057l-0.174,0.047l0.115,0.244 c-0.004,0.018-0.008,0.039-0.014,0.061c-0.02,0.07-0.049,0.213,0.023,0.338c-0.055,0.141-0.021,0.281,0.004,0.373 c0.006,0.025,0.014,0.061,0.018,0.084c-0.166,0.174-0.086,0.404-0.039,0.525c-0.08,0.119-0.061,0.262-0.045,0.344l-0.223,0.076 l0.229,0.236c-0.012,0.053-0.012,0.111,0.025,0.178c0.027,0.039,0.063,0.063,0.096,0.08l-0.07,0.02 c0.002,0.012,0.006,0.016,0.01,0.023h-0.002l0.08,0.211l-0.002,0.02c-0.02,0.123,0.01,0.246,0.07,0.336 c-0.021,0.029-0.035,0.061-0.037,0.102l-0.09,0.088l0.088,0.125c0.068,0.1,0.041,0.225-0.01,0.426 c-0.043,0.174-0.098,0.396,0.004,0.59l-0.123,0.123l0.158,0.113c-0.006,0.008-0.012,0.016-0.014,0.023 c-0.041,0.076-0.115,0.215-0.023,0.365l-0.008-0.018c0.033,0.072,0.018,0.189,0.002,0.316c-0.02,0.182-0.047,0.402,0.051,0.619 l-0.029,0.217l0.004-0.023c-0.025,0.082-0.004,0.154,0.021,0.209l-0.068,0.033l0.047,0.148c0.053,0.16,0.053,0.357,0.053,0.561 c0.004,0.389,0.004,0.83,0.354,1.164l0.076,0.076l0.102-0.031c0.262-0.078,0.273-0.338,0.283-0.48c0-0.027,0.002-0.057,0.006-0.082 l0.002-0.037l-0.008-0.037c-0.105-0.357-0.063-0.824-0.023-1.236c0.01-0.111,0.02-0.213,0.029-0.313l0.002-0.051l-0.021-0.043 c-0.072-0.145-0.055-0.287-0.033-0.451c0.018-0.146,0.035-0.316-0.02-0.486c0.063-0.754,0.027-1.646-0.004-2.439 c-0.014-0.334-0.025-0.65-0.031-0.936l-0.002-0.012v-0.012c-0.045-0.369-0.031-0.771-0.021-1.156c0.01-0.35,0.021-0.707-0.01-1.035 c0.08-0.375,0.078-0.723,0.068-1.086c-0.002-0.164-0.008-0.338,0-0.514v-0.047l-0.01-0.021c0.082-0.096,0.102-0.197,0.057-0.299 c0.039-0.139,0.045-0.271,0.051-0.391c0.002-0.094,0.004-0.18,0.023-0.262l0.01-0.047l-0.012-0.043 c-0.021-0.08,0-0.172,0.021-0.266c0.025-0.121,0.057-0.26,0.008-0.4c0.141-0.283,0.172-0.629,0.199-0.967l0.012-0.113 c0.01-0.076-0.014-0.145-0.072-0.205v-0.012c0-0.15,0.074-0.27,0.172-0.42c0.107-0.168,0.227-0.354,0.258-0.615l0.006-0.041 l-0.004-0.008c0.012-0.012,0.025-0.025,0.041-0.037c0.063-0.057,0.164-0.141,0.16-0.273c0-0.023-0.004-0.051-0.012-0.072 c0.123-0.113,0.203-0.24,0.271-0.355c0.102-0.17,0.174-0.295,0.377-0.35l0.098-0.031l0.025-0.096 c0.029-0.111,0.125-0.174,0.281-0.271c0.113-0.072,0.24-0.154,0.336-0.277c0.129,0.012,0.211-0.025,0.254-0.074 c0.156-0.037,0.277-0.129,0.377-0.209c0.166-0.133,0.221-0.162,0.332-0.109l0.113,0.051l0.07-0.07 c0.008-0.004,0.012-0.004,0.018-0.004c0.049-0.012,0.141-0.043,0.191-0.125c0.049-0.012,0.094-0.023,0.133-0.037 c0.09-0.031,0.111-0.035,0.145-0.018c0.035,0.018,0.094,0.041,0.168,0.023l0.006,0.012l0.133-0.018l0.174-0.02 c0.518-0.068,0.963-0.123,1.367,0.092l0.143,0.08l0.09-0.131c0.018,0.02,0.035,0.043,0.053,0.059 c0.102,0.115,0.285,0.316,0.547,0.27c0.057,0.051,0.123,0.092,0.18,0.127c0.023,0.012,0.055,0.031,0.074,0.043v0.008l0.037,0.049 c0.082,0.107,0.256,0.16,0.393,0.166c0.305,0.318,0.613,0.754,0.613,0.947v0.176h0.133l0.004,0.014 c0.049,0.238,0.115,0.529,0.301,0.719c-0.053,0.121-0.008,0.268,0.012,0.328c0.008,0.018,0.014,0.047,0.02,0.066l-0.045,0.135 l0.119,0.119l0.023,0.014c-0.006,0.123,0.053,0.242,0.092,0.32c0.008,0.02,0.02,0.045,0.027,0.068l-0.025,0.064 c-0.16,0.307,0.055,0.479,0.158,0.561c0.016,0.012,0.027,0.021,0.039,0.033c-0.08,0.063-0.078,0.123-0.094,0.234l0.014,0.135 l0.053,0.088l0.006,0.002c0.002,0.006,0.006,0.012,0.006,0.018c0.01,0.029,0.021,0.064,0.043,0.105l-0.061,0.061l-0.043,0.158 l0.092,0.133l0.066,0.033c-0.002,0.072,0.029,0.137,0.047,0.182c0.006,0.008,0.008,0.018,0.01,0.025l-0.014,0.08 c-0.061,0.295-0.137,0.676,0.049,0.984c-0.006,0.004-0.01,0.008-0.01,0.008c-0.09,0.119-0.068,0.248-0.053,0.342 c0.002,0.031,0.014,0.084,0.008,0.1l-0.045,0.182c-0.002,0.01,0.057,0.025,0.111,0.035c-0.008,0.018-0.014,0.035-0.02,0.057 l-0.039,0.213h0.074c-0.016,0.072-0.016,0.141-0.018,0.201c-0.002,0.109-0.006,0.18-0.045,0.236l-0.014,0.025l-0.008,0.027 c-0.053,0.195,0.018,0.375,0.074,0.523c0.012,0.027,0.023,0.057,0.031,0.082c-0.031,0.035-0.059,0.08-0.057,0.15 c0,0.018,0.008,0.031,0.012,0.047l-0.039,0.037l0.035,0.107c0.018,0.057,0.055,0.096,0.102,0.117l-0.033,0.006 c-0.006,0.002-0.006,0.143-0.006,0.143v0.051l-0.111,0.029l0.057,0.119c-0.029,0.057-0.061,0.131-0.029,0.221l-0.078,0.137 c0,0,0.014,0.082,0.084,0.115c-0.074,0.246,0.105,0.424,0.209,0.529c0.045,0.049,0.076,0.078,0.096,0.107h-0.09l0.068,0.229 l0.002,0.006c-0.016,0.018-0.031,0.033-0.047,0.053l-0.148,0.072l0.047,0.197l-0.016,0.051c-0.031,0.104-0.004,0.176,0.023,0.217 c0.008,0.01,0.016,0.012,0.021,0.02c-0.053,0.055-0.111,0.129-0.123,0.248l-0.018,0.17l0.139,0.023 c-0.012,0.035-0.025,0.07-0.033,0.102c-0.018,0.068-0.031,0.121-0.061,0.164h0.002c-0.002,0.008-0.01,0.016-0.012,0.023l0.24,0.133 c-0.033,0.064-0.055,0.125-0.068,0.176c-0.01,0.021-0.021,0.055-0.029,0.07c0,0-0.008,0-0.014,0l-0.203,0.002l0.01,0.236 c0.012,0.035,0.018,0.072,0.021,0.123c0.006,0.043,0.01,0.092,0.023,0.143v0.232c0,0.031,0.002,0.078,0.012,0.129l-0.027,0.016 l0.018,0.131c0.012,0.064,0.006,0.129,0,0.193c-0.004,0.035-0.004,0.076-0.004,0.121l-0.166,0.08l0.201,0.221 c-0.002,0.002-0.004,0.01-0.004,0.014c-0.021,0.053-0.051,0.125-0.051,0.205h-0.145l0.244,0.295 c0.02,0.023,0.039,0.092,0.053,0.137c0.002,0.01,0.004,0.016,0.004,0.021c-0.098,0.096-0.113,0.236-0.121,0.316 c-0.006,0.031-0.01,0.08-0.016,0.096v-0.004l0.061,0.082c-0.045,0.035-0.074,0.076-0.092,0.109 c-0.027,0.057-0.027,0.113-0.02,0.168h-0.234l0.195,0.195l-0.184,0.059l0.15,0.125v0.482c0,0.086,0.045,0.156,0.111,0.195 c0,0,0.012,0.004,0.016,0.004c0.094,0.064,0.199,0.059,0.287,0.041v0.197l0.229-0.068c0.17-0.051,0.299-0.061,0.432-0.033 l0.191,0.039l0.025-0.193c0.092-0.713,0.072-1.412,0.055-2.082c-0.018-0.656-0.033-1.275,0.049-1.883 C207.803,32.953,207.748,32.844,207.713,32.783"/>
</svg>
